<?xml version="1.0" encoding="iso-8859-1"?>
<!-- Uploaded to: SVG Repo, www.svgrepo.com, Generator: SVG Repo Mixer Tools -->
<svg height="800px" width="800px" version="1.1" id="Layer_1" xmlns="http://www.w3.org/2000/svg" xmlns:xlink="http://www.w3.org/1999/xlink" 
	 viewBox="0 0 512 512" xml:space="preserve">
<path style="fill:#CFF09E;" d="M436.292,196.805c-17.594-57.744-69.074-95.84-125.992-99.13l-0.23,0.027
	c-1.638-17.365-14.906-32.06-32.8-34.624c-6.951-0.997-14.045-1.512-21.276-1.512c-7.221,0-14.315,0.514-21.266,1.512
	c-17.838,2.552-31.084,17.173-32.78,34.476c-0.006,0.049-0.006,0.099-0.011,0.148l-0.234-0.027
	c-56.918,3.29-108.398,41.386-125.992,99.13l-2.602,8.519l8.525,2.588c8.519,2.602,17.1,4.349,25.646,5.282
	c43.885,4.833,86.85-11.516,116.481-42.442c6.785,11.44,15.081,22.222,24.926,32.068l7.308,7.302l7.318-7.302
	c9.834-9.839,18.143-20.634,24.929-32.07c29.631,30.926,72.598,47.277,116.483,42.444c8.546-0.932,17.127-2.68,25.646-5.282
	l8.525-2.588L436.292,196.805z"/>
<g>
	<path style="fill:#507C5C;" d="M214.683,358.686c-7.934,0-14.368-6.433-14.368-14.368v-13.17c0-7.936,6.434-14.368,14.368-14.368
		s14.368,6.433,14.368,14.368v13.17C229.051,352.253,222.617,358.686,214.683,358.686z"/>
	<path style="fill:#507C5C;" d="M297.322,358.686c-7.934,0-14.368-6.433-14.368-14.368v-13.17c0-7.936,6.434-14.368,14.368-14.368
		s14.368,6.433,14.368,14.368v13.17C311.69,352.253,305.257,358.686,297.322,358.686z"/>
	<path style="fill:#507C5C;" d="M256.002,427.551c-7.934,0-14.368-6.433-14.368-14.368v-13.168c0-7.936,6.434-14.368,14.368-14.368
		s14.368,6.433,14.368,14.368v13.168C270.37,421.118,263.937,427.551,256.002,427.551z"/>
	<path style="fill:#507C5C;" d="M165.33,289.821c-7.934,0-14.368-6.433-14.368-14.368v-13.17c0-7.936,6.434-14.368,14.368-14.368
		s14.368,6.433,14.368,14.368v13.17C179.698,283.388,173.264,289.821,165.33,289.821z"/>
	<path style="fill:#507C5C;" d="M256.002,289.821c-7.934,0-14.368-6.433-14.368-14.368v-13.17c0-7.936,6.434-14.368,14.368-14.368
		s14.368,6.433,14.368,14.368v13.17C270.37,283.388,263.937,289.821,256.002,289.821z"/>
	<path style="fill:#507C5C;" d="M346.675,289.821c-7.934,0-14.368-6.433-14.368-14.368v-13.17c0-7.936,6.434-14.368,14.368-14.368
		c7.934,0,14.368,6.433,14.368,14.368v13.17C361.043,283.388,354.609,289.821,346.675,289.821z"/>
	<path style="fill:#507C5C;" d="M452.636,201.126l-2.601-8.509c-17.733-58.2-68.477-100.599-128.199-108.289
		c-6.247-18.656-22.426-32.594-42.527-35.475c-2.958-0.424-5.946-0.741-8.941-1.001V14.368C270.368,6.433,263.934,0,256,0
		c-7.934,0-14.368,6.433-14.368,14.368v33.484c-2.996,0.26-5.981,0.578-8.94,1.001c-20.078,2.872-36.272,16.821-42.525,35.475
		C130.441,92.015,79.7,134.413,61.968,192.607l-2.604,8.519c-1.115,3.65-0.733,7.591,1.062,10.957
		c1.795,3.366,4.855,5.881,8.505,6.99l6.668,2.024c-3.813,13.983-5.749,29.745-5.749,47.09c0,52.402,23.762,112.238,65.194,164.165
		C174.242,481.481,220.59,512,255.999,512c36.012,0,82.604-30.531,121.591-79.679c41.027-51.721,64.558-111.544,64.558-164.133
		c0-7.936-6.434-14.368-14.368-14.368s-14.368,6.433-14.368,14.368c0,45.544-21.808,100.227-58.335,146.275
		c-32.645,41.152-72.46,68.801-99.077,68.801c-26.061,0-65.642-27.662-98.491-68.832c-36.895-46.24-58.921-100.911-58.921-146.244
		c0-15.43,1.73-29.142,5.132-40.952c0.661,0.082,1.323,0.168,1.984,0.24c5.565,0.614,11.222,0.924,16.814,0.924
		c35.961,0,71.033-12.816,98.619-35.63c5.27,7.147,11.085,13.908,17.391,20.215l7.308,7.302c5.605,5.602,14.694,5.606,20.305,0.007
		l7.332-7.315c6.303-6.306,12.117-13.066,17.385-20.212c27.587,22.815,62.661,35.633,98.623,35.635c0.001,0,0.001,0,0.003,0
		c5.591,0,11.247-0.312,16.796-0.922c9.517-1.039,19.034-2.997,28.261-5.816l8.526-2.588c3.65-1.108,6.71-3.622,8.505-6.99
		C453.369,208.718,453.751,204.775,452.636,201.126z M403.15,198.912c-4.523,0.499-9.122,0.751-13.666,0.751
		c-0.001,0-0.001,0-0.003,0c-34.09,0-67.209-14.163-90.866-38.854c-2.726-2.845-6.481-4.428-10.374-4.428
		c-0.545,0-1.092,0.03-1.639,0.093c-4.46,0.512-8.427,3.081-10.719,6.943c-5.611,9.454-12.293,18.294-19.887,26.317
		c-7.598-8.026-14.275-16.861-19.881-26.312c-2.292-3.862-6.256-6.433-10.719-6.944c-4.451-0.513-8.905,1.091-12.013,4.335
		c-23.656,24.69-56.776,38.852-90.864,38.852c-4.545,0-9.144-0.253-13.681-0.753c-5.901-0.644-11.809-1.726-17.633-3.227
		c16.702-47.133,60.377-80.387,110.511-83.614c0.079,0.003,0.158,0.003,0.239,0.003c7.198,0,13.41-5.4,14.255-12.722
		c0.022-0.181,0.039-0.364,0.053-0.546c1.157-11.107,9.565-19.94,20.505-21.505c12.648-1.815,25.824-1.813,38.464,0
		c11.032,1.582,19.476,10.526,20.534,21.751c0.364,3.849,2.262,7.39,5.266,9.821c2.625,2.124,5.92,3.218,9.244,3.198
		c50.138,3.224,93.814,36.474,110.523,83.614C414.98,197.185,409.069,198.267,403.15,198.912z"/>
</g>
</svg>